<svg width="18" height="19" viewBox="0 0 18 19" fill="none" xmlns="http://www.w3.org/2000/svg">
<path d="M8.94712 5.13551C6.47798 5.13551 4.43213 7.1461 4.43213 9.6505C4.43213 12.1549 6.44271 14.1655 8.94712 14.1655C11.4515 14.1655 13.4621 12.1196 13.4621 9.6505C13.4621 7.18137 11.4163 5.13551 8.94712 5.13551ZM8.94712 12.5429C7.35982 12.5429 6.0547 11.2378 6.0547 9.6505C6.0547 8.0632 7.35982 6.75809 8.94712 6.75809C10.5344 6.75809 11.8395 8.0632 11.8395 9.6505C11.8395 11.2378 10.5344 12.5429 8.94712 12.5429Z" fill="#78716C"/>
<path d="M13.6384 6.05263C14.2034 6.05263 14.6613 5.59465 14.6613 5.0297C14.6613 4.46476 14.2034 4.00677 13.6384 4.00677C13.0735 4.00677 12.6155 4.46476 12.6155 5.0297C12.6155 5.59465 13.0735 6.05263 13.6384 6.05263Z" fill="#78716C"/>
<path d="M16.2839 2.3842C15.3668 1.43182 14.0617 0.937988 12.5802 0.937988H5.31386C2.24507 0.937988 0.199219 2.98384 0.199219 6.05263V13.2837C0.199219 14.8004 0.693046 16.1055 1.6807 17.0579C2.63308 17.975 3.90292 18.4336 5.34913 18.4336H12.5449C14.0617 18.4336 15.3315 17.9398 16.2486 17.0579C17.201 16.1408 17.6948 14.8357 17.6948 13.3189V6.05263C17.6948 4.57115 17.201 3.3013 16.2839 2.3842ZM16.1428 13.3189C16.1428 14.4124 15.7548 15.2943 15.1199 15.8939C14.4849 16.4935 13.6031 16.811 12.5449 16.811H5.34913C4.29093 16.811 3.4091 16.4935 2.77417 15.8939C2.13925 15.259 1.82179 14.3771 1.82179 13.2837V6.05263C1.82179 4.99443 2.13925 4.11259 2.77417 3.47767C3.37382 2.87802 4.29093 2.56056 5.34913 2.56056H12.6154C13.6736 2.56056 14.5555 2.87802 15.1904 3.51294C15.79 4.14787 16.1428 5.0297 16.1428 6.05263V13.3189Z" fill="#78716C"/>
</svg>
