<svg width="15" height="18" viewBox="0 0 15 18" fill="none" xmlns="http://www.w3.org/2000/svg">
<path d="M2.79493 7.59065C3.70477 10.0754 5.3898 12.2211 7.59213 13.6946L9.63174 12.0891C9.88663 11.889 10.2214 11.8621 10.4959 11.9874C11.3857 12.405 12.3628 12.6903 13.3929 12.8142C13.8521 12.8694 14.176 13.2819 14.1208 13.7411L13.7725 16.6369C13.7173 17.0961 13.3049 17.42 12.8457 17.3648C5.07664 16.4305 -0.462486 9.37701 0.471792 1.60798C0.527013 1.14879 0.943607 0.825383 1.39866 0.880106L4.29446 1.22835C4.75366 1.28357 5.07756 1.69602 5.02234 2.15522C4.89847 3.18529 4.94405 4.20218 5.13874 5.16565C5.19542 5.46204 5.08993 5.78089 4.83504 5.98105L2.79493 7.59065Z" fill="#78716C"/>
</svg>
